<?xml version="1.0" encoding="UTF-8"?>
<!DOCTYPE svg PUBLIC "-//W3C//DTD SVG 1.1//EN" "http://www.w3.org/Graphics/SVG/1.1/DTD/svg11.dtd">
<svg version="1.2" width="147.6mm" height="147.6mm" viewBox="0 0 14760 14760" preserveAspectRatio="xMidYMid" fill-rule="evenodd" stroke-width="28.222" stroke-linejoin="round" xmlns="http://www.w3.org/2000/svg" xmlns:ooo="http://xml.openoffice.org/svg/export" xmlns:xlink="http://www.w3.org/1999/xlink" xmlns:presentation="http://sun.com/xmlns/staroffice/presentation" xmlns:smil="http://www.w3.org/2001/SMIL20/" xmlns:anim="urn:oasis:names:tc:opendocument:xmlns:animation:1.0" xml:space="preserve">
 <defs class="ClipPathGroup">
  <clipPath id="presentation_clip_path" clipPathUnits="userSpaceOnUse">
   <rect x="0" y="0" width="14760" height="14760"/>
  </clipPath>
  <clipPath id="presentation_clip_path_shrink" clipPathUnits="userSpaceOnUse">
   <rect x="14" y="14" width="14731" height="14731"/>
  </clipPath>
 </defs>
 <defs class="TextShapeIndex">
  <g ooo:slide="id1" ooo:id-list="id3 id4 id5 id6 id7 id8 id9 id10 id11 id12"/>
 </defs>
 <defs class="EmbeddedBulletChars">
  <g id="bullet-char-template-57356" transform="scale(0.00048828125,-0.00048828125)">
   <path d="M 580,1141 L 1163,571 580,0 -4,571 580,1141 Z"/>
  </g>
  <g id="bullet-char-template-57354" transform="scale(0.00048828125,-0.00048828125)">
   <path d="M 8,1128 L 1137,1128 1137,0 8,0 8,1128 Z"/>
  </g>
  <g id="bullet-char-template-10146" transform="scale(0.00048828125,-0.00048828125)">
   <path d="M 174,0 L 602,739 174,1481 1456,739 174,0 Z M 1358,739 L 309,1346 659,739 1358,739 Z"/>
  </g>
  <g id="bullet-char-template-10132" transform="scale(0.00048828125,-0.00048828125)">
   <path d="M 2015,739 L 1276,0 717,0 1260,543 174,543 174,936 1260,936 717,1481 1274,1481 2015,739 Z"/>
  </g>
  <g id="bullet-char-template-10007" transform="scale(0.00048828125,-0.00048828125)">
   <path d="M 0,-2 C -7,14 -16,27 -25,37 L 356,567 C 262,823 215,952 215,954 215,979 228,992 255,992 264,992 276,990 289,987 310,991 331,999 354,1012 L 381,999 492,748 772,1049 836,1024 860,1049 C 881,1039 901,1025 922,1006 886,937 835,863 770,784 769,783 710,716 594,584 L 774,223 C 774,196 753,168 711,139 L 727,119 C 717,90 699,76 672,76 641,76 570,178 457,381 L 164,-76 C 142,-110 111,-127 72,-127 30,-127 9,-110 8,-76 1,-67 -2,-52 -2,-32 -2,-23 -1,-13 0,-2 Z"/>
  </g>
  <g id="bullet-char-template-10004" transform="scale(0.00048828125,-0.00048828125)">
   <path d="M 285,-33 C 182,-33 111,30 74,156 52,228 41,333 41,471 41,549 55,616 82,672 116,743 169,778 240,778 293,778 328,747 346,684 L 369,508 C 377,444 397,411 428,410 L 1163,1116 C 1174,1127 1196,1133 1229,1133 1271,1133 1292,1118 1292,1087 L 1292,965 C 1292,929 1282,901 1262,881 L 442,47 C 390,-6 338,-33 285,-33 Z"/>
  </g>
  <g id="bullet-char-template-9679" transform="scale(0.00048828125,-0.00048828125)">
   <path d="M 813,0 C 632,0 489,54 383,161 276,268 223,411 223,592 223,773 276,916 383,1023 489,1130 632,1184 813,1184 992,1184 1136,1130 1245,1023 1353,916 1407,772 1407,592 1407,412 1353,268 1245,161 1136,54 992,0 813,0 Z"/>
  </g>
  <g id="bullet-char-template-8226" transform="scale(0.00048828125,-0.00048828125)">
   <path d="M 346,457 C 273,457 209,483 155,535 101,586 74,649 74,723 74,796 101,859 155,911 209,963 273,989 346,989 419,989 480,963 531,910 582,859 608,796 608,723 608,648 583,586 532,535 482,483 420,457 346,457 Z"/>
  </g>
  <g id="bullet-char-template-8211" transform="scale(0.00048828125,-0.00048828125)">
   <path d="M -4,459 L 1135,459 1135,606 -4,606 -4,459 Z"/>
  </g>
  <g id="bullet-char-template-61548" transform="scale(0.00048828125,-0.00048828125)">
   <path d="M 173,740 C 173,903 231,1043 346,1159 462,1274 601,1332 765,1332 928,1332 1067,1274 1183,1159 1299,1043 1357,903 1357,740 1357,577 1299,437 1183,322 1067,206 928,148 765,148 601,148 462,206 346,322 231,437 173,577 173,740 Z"/>
  </g>
 </defs>
 <g>
  <g id="id2" class="Master_Slide">
   <g id="bg-id2" class="Background"/>
   <g id="bo-id2" class="BackgroundObjects"/>
  </g>
 </g>
 <g class="SlideGroup">
  <g>
   <g id="container-id1">
    <g id="id1" class="Slide" clip-path="url(#presentation_clip_path)">
     <g class="Page">
      <g class="com.sun.star.drawing.ClosedBezierShape">
       <g id="id3">
        <rect class="BoundingBox" stroke="none" fill="none" x="3220" y="7271" width="5086" height="3984"/>
        <path fill="rgb(0,0,0)" stroke="none" d="M 3665,11213 C 4193,11063 5893,10570 6666,9913 7438,9256 8377,7304 8299,7272 8220,7240 6997,9133 6197,9723 5397,10314 3921,10566 3499,10815 3077,11063 3138,11363 3665,11213 Z"/>
       </g>
      </g>
      <g class="com.sun.star.drawing.ClosedBezierShape">
       <g id="id4">
        <rect class="BoundingBox" stroke="none" fill="none" x="3391" y="7405" width="4857" height="3194"/>
        <path fill="rgb(0,0,0)" stroke="none" d="M 3784,10578 C 4269,10485 5832,10175 6575,9646 7318,9118 8311,7440 8243,7406 8175,7373 6933,8973 6170,9440 5407,9907 4063,10019 3666,10208 3268,10398 3299,10672 3784,10578 Z"/>
       </g>
      </g>
      <g class="com.sun.star.drawing.ClosedBezierShape">
       <g id="id5">
        <rect class="BoundingBox" stroke="none" fill="none" x="3600" y="7460" width="4596" height="2513"/>
        <path fill="rgb(0,0,0)" stroke="none" d="M 3946,9965 C 4388,9918 5814,9760 6522,9343 7230,8926 8250,7497 8192,7461 8134,7425 6895,8766 6175,9127 5454,9487 4240,9484 3868,9624 3497,9764 3503,10012 3946,9965 Z"/>
       </g>
      </g>
      <g class="com.sun.star.drawing.ClosedBezierShape">
       <g id="id6">
        <rect class="BoundingBox" stroke="none" fill="none" x="3892" y="7496" width="4291" height="1912"/>
        <path fill="rgb(0,0,0)" stroke="none" d="M 4195,9406 C 4596,9398 5888,9368 6552,9050 7216,8731 8228,7533 8179,7497 8129,7460 6926,8563 6254,8829 5582,9096 4491,8999 4148,9095 3805,9191 3794,9413 4195,9406 Z"/>
       </g>
      </g>
      <g class="com.sun.star.drawing.ClosedBezierShape">
       <g id="id7">
        <rect class="BoundingBox" stroke="none" fill="none" x="3227" y="3317" width="5086" height="3984"/>
        <path fill="rgb(0,0,0)" stroke="none" d="M 3672,3358 C 4200,3509 5900,4001 6673,4658 7445,5315 8384,7269 8306,7300 8227,7332 7004,5439 6204,4848 5404,4258 3928,4005 3506,3757 3084,3509 3144,3208 3672,3358 Z"/>
       </g>
      </g>
      <g class="com.sun.star.drawing.ClosedBezierShape">
       <g id="id8">
        <rect class="BoundingBox" stroke="none" fill="none" x="3398" y="3974" width="4857" height="3194"/>
        <path fill="rgb(0,0,0)" stroke="none" d="M 3791,3993 C 4275,4087 5838,4396 6582,4925 7325,5454 8318,7131 8250,7166 8182,7200 6939,5599 6176,5132 5413,4665 4070,4553 3672,4363 3275,4174 3306,3900 3791,3993 Z"/>
       </g>
      </g>
      <g class="com.sun.star.drawing.ClosedBezierShape">
       <g id="id9">
        <rect class="BoundingBox" stroke="none" fill="none" x="3607" y="4600" width="4596" height="2513"/>
        <path fill="rgb(0,0,0)" stroke="none" d="M 3952,4606 C 4395,4653 5821,4811 6529,5229 7237,5646 8257,7075 8199,7111 8141,7147 6902,5805 6181,5445 5460,5084 4246,5087 3875,4948 3504,4808 3510,4560 3952,4606 Z"/>
       </g>
      </g>
      <g class="com.sun.star.drawing.ClosedBezierShape">
       <g id="id10">
        <rect class="BoundingBox" stroke="none" fill="none" x="3899" y="5165" width="4290" height="1912"/>
        <path fill="rgb(0,0,0)" stroke="none" d="M 4202,5166 C 4602,5173 5895,5204 6559,5522 7223,5840 8235,7038 8185,7075 8136,7112 6933,6009 6261,5742 5589,5476 4498,5573 4155,5477 3812,5381 3801,5159 4202,5166 Z"/>
       </g>
      </g>
      <g class="com.sun.star.drawing.PolyPolygonShape">
       <g id="id11">
        <rect class="BoundingBox" stroke="none" fill="none" x="7391" y="9252" width="4151" height="790"/>
        <path fill="rgb(0,0,0)" stroke="none" d="M 7432,10000 L 7573,9293 11500,9293 11358,10000 7432,10000 Z"/>
        <path fill="none" stroke="rgb(255,255,255)" stroke-width="81" stroke-linejoin="miter" d="M 7432,10000 L 7573,9293 11500,9293 11358,10000 7432,10000 Z"/>
       </g>
      </g>
      <g class="com.sun.star.drawing.ClosedBezierShape">
       <g id="id12">
        <rect class="BoundingBox" stroke="none" fill="none" x="5973" y="4668" width="3170" height="5112"/>
        <path fill="rgb(0,0,0)" stroke="none" d="M 6604,9733 C 6598,9737 6591,9739 6584,9739 6577,9739 6570,9737 6564,9733 6561,9731 6558,9729 6555,9727 L 6025,9197 C 6023,9194 6021,9191 6019,9188 6015,9182 6014,9175 6014,9168 6014,9161 6015,9154 6019,9148 6021,9145 6023,9142 6025,9139 L 7942,7223 6027,5308 C 6025,5305 6023,5302 6021,5299 6017,5293 6016,5286 6016,5279 6016,5272 6017,5265 6021,5259 6023,5256 6025,5253 6027,5250 L 6557,4720 C 6560,4718 6563,4716 6566,4714 6572,4710 6579,4709 6586,4709 6593,4709 6600,4710 6606,4714 6609,4716 6612,4718 6615,4720 L 9090,7195 C 9092,7198 9094,7201 9096,7204 9100,7210 9102,7217 9102,7224 9102,7231 9100,7238 9096,7244 9094,7247 9092,7250 9090,7253 L 8560,7783 C 8557,7785 8554,7787 8551,7789 8551,7790 8550,7790 8549,7790 L 6613,9727 C 6610,9729 6607,9731 6604,9733 Z"/>
        <path fill="none" stroke="rgb(255,255,255)" stroke-width="81" stroke-linejoin="round" d="M 6604,9733 C 6598,9737 6591,9739 6584,9739 6577,9739 6570,9737 6564,9733 6561,9731 6558,9729 6555,9727 L 6025,9197 C 6023,9194 6021,9191 6019,9188 6015,9182 6014,9175 6014,9168 6014,9161 6015,9154 6019,9148 6021,9145 6023,9142 6025,9139 L 7942,7223 6027,5308 C 6025,5305 6023,5302 6021,5299 6017,5293 6016,5286 6016,5279 6016,5272 6017,5265 6021,5259 6023,5256 6025,5253 6027,5250 L 6557,4720 C 6560,4718 6563,4716 6566,4714 6572,4710 6579,4709 6586,4709 6593,4709 6600,4710 6606,4714 6609,4716 6612,4718 6615,4720 L 9090,7195 C 9092,7198 9094,7201 9096,7204 9100,7210 9102,7217 9102,7224 9102,7231 9100,7238 9096,7244 9094,7247 9092,7250 9090,7253 L 8560,7783 C 8557,7785 8554,7787 8551,7789 8551,7790 8550,7790 8549,7790 L 6613,9727 C 6610,9729 6607,9731 6604,9733 Z"/>
       </g>
      </g>
     </g>
    </g>
   </g>
  </g>
 </g>
</svg>