<?xml version="1.0" encoding="UTF-8"?>
<!DOCTYPE svg PUBLIC "-//W3C//DTD SVG 1.1//EN" "http://www.w3.org/Graphics/SVG/1.1/DTD/svg11.dtd">
<svg version="1.2" width="147.6mm" height="147.6mm" viewBox="0 0 14760 14760" preserveAspectRatio="xMidYMid" fill-rule="evenodd" stroke-width="28.222" stroke-linejoin="round" xmlns="http://www.w3.org/2000/svg" xmlns:ooo="http://xml.openoffice.org/svg/export" xmlns:xlink="http://www.w3.org/1999/xlink" xmlns:presentation="http://sun.com/xmlns/staroffice/presentation" xmlns:smil="http://www.w3.org/2001/SMIL20/" xmlns:anim="urn:oasis:names:tc:opendocument:xmlns:animation:1.0" xml:space="preserve">
 <defs class="ClipPathGroup">
  <clipPath id="presentation_clip_path" clipPathUnits="userSpaceOnUse">
   <rect x="0" y="0" width="14760" height="14760"/>
  </clipPath>
  <clipPath id="presentation_clip_path_shrink" clipPathUnits="userSpaceOnUse">
   <rect x="14" y="14" width="14731" height="14731"/>
  </clipPath>
 </defs>
 <defs class="TextShapeIndex">
  <g ooo:slide="id1" ooo:id-list="id3 id4 id5"/>
 </defs>
 <defs class="EmbeddedBulletChars">
  <g id="bullet-char-template-57356" transform="scale(0.00048828125,-0.00048828125)">
   <path d="M 580,1141 L 1163,571 580,0 -4,571 580,1141 Z"/>
  </g>
  <g id="bullet-char-template-57354" transform="scale(0.00048828125,-0.00048828125)">
   <path d="M 8,1128 L 1137,1128 1137,0 8,0 8,1128 Z"/>
  </g>
  <g id="bullet-char-template-10146" transform="scale(0.00048828125,-0.00048828125)">
   <path d="M 174,0 L 602,739 174,1481 1456,739 174,0 Z M 1358,739 L 309,1346 659,739 1358,739 Z"/>
  </g>
  <g id="bullet-char-template-10132" transform="scale(0.00048828125,-0.00048828125)">
   <path d="M 2015,739 L 1276,0 717,0 1260,543 174,543 174,936 1260,936 717,1481 1274,1481 2015,739 Z"/>
  </g>
  <g id="bullet-char-template-10007" transform="scale(0.00048828125,-0.00048828125)">
   <path d="M 0,-2 C -7,14 -16,27 -25,37 L 356,567 C 262,823 215,952 215,954 215,979 228,992 255,992 264,992 276,990 289,987 310,991 331,999 354,1012 L 381,999 492,748 772,1049 836,1024 860,1049 C 881,1039 901,1025 922,1006 886,937 835,863 770,784 769,783 710,716 594,584 L 774,223 C 774,196 753,168 711,139 L 727,119 C 717,90 699,76 672,76 641,76 570,178 457,381 L 164,-76 C 142,-110 111,-127 72,-127 30,-127 9,-110 8,-76 1,-67 -2,-52 -2,-32 -2,-23 -1,-13 0,-2 Z"/>
  </g>
  <g id="bullet-char-template-10004" transform="scale(0.00048828125,-0.00048828125)">
   <path d="M 285,-33 C 182,-33 111,30 74,156 52,228 41,333 41,471 41,549 55,616 82,672 116,743 169,778 240,778 293,778 328,747 346,684 L 369,508 C 377,444 397,411 428,410 L 1163,1116 C 1174,1127 1196,1133 1229,1133 1271,1133 1292,1118 1292,1087 L 1292,965 C 1292,929 1282,901 1262,881 L 442,47 C 390,-6 338,-33 285,-33 Z"/>
  </g>
  <g id="bullet-char-template-9679" transform="scale(0.00048828125,-0.00048828125)">
   <path d="M 813,0 C 632,0 489,54 383,161 276,268 223,411 223,592 223,773 276,916 383,1023 489,1130 632,1184 813,1184 992,1184 1136,1130 1245,1023 1353,916 1407,772 1407,592 1407,412 1353,268 1245,161 1136,54 992,0 813,0 Z"/>
  </g>
  <g id="bullet-char-template-8226" transform="scale(0.00048828125,-0.00048828125)">
   <path d="M 346,457 C 273,457 209,483 155,535 101,586 74,649 74,723 74,796 101,859 155,911 209,963 273,989 346,989 419,989 480,963 531,910 582,859 608,796 608,723 608,648 583,586 532,535 482,483 420,457 346,457 Z"/>
  </g>
  <g id="bullet-char-template-8211" transform="scale(0.00048828125,-0.00048828125)">
   <path d="M -4,459 L 1135,459 1135,606 -4,606 -4,459 Z"/>
  </g>
  <g id="bullet-char-template-61548" transform="scale(0.00048828125,-0.00048828125)">
   <path d="M 173,740 C 173,903 231,1043 346,1159 462,1274 601,1332 765,1332 928,1332 1067,1274 1183,1159 1299,1043 1357,903 1357,740 1357,577 1299,437 1183,322 1067,206 928,148 765,148 601,148 462,206 346,322 231,437 173,577 173,740 Z"/>
  </g>
 </defs>
 <g>
  <g id="id2" class="Master_Slide">
   <g id="bg-id2" class="Background"/>
   <g id="bo-id2" class="BackgroundObjects"/>
  </g>
 </g>
 <g class="SlideGroup">
  <g>
   <g id="container-id1">
    <g id="id1" class="Slide" clip-path="url(#presentation_clip_path)">
     <g class="Page">
      <g class="Graphic">
       <g id="id3">
        <rect class="BoundingBox" stroke="none" fill="none" x="315" y="-3" width="14760" height="14760"/>
        <path fill="rgb(0,0,0)" stroke="none" d="M 3665,11214 C 4193,11064 5893,10571 6666,9914 7438,9257 8378,7304 8300,7272 8221,7240 6997,9134 6197,9724 5397,10315 3921,10567 3499,10816 3077,11064 3138,11364 3665,11214 L 3665,11214 Z"/>
        <path fill="rgb(0,0,0)" stroke="none" d="M 3784,10579 C 4269,10486 5832,10176 6575,9647 7318,9119 8312,7441 8244,7407 8176,7373 6933,8974 6170,9441 5407,9908 4063,10020 3666,10209 3268,10399 3299,10673 3784,10579 L 3784,10579 Z"/>
        <path fill="rgb(0,0,0)" stroke="none" d="M 3946,9966 C 4388,9919 5814,9761 6522,9344 7230,8927 8251,7498 8193,7462 8135,7426 6895,8767 6175,9128 5454,9488 4240,9485 3868,9625 3497,9765 3503,10013 3946,9966 L 3946,9966 Z"/>
        <path fill="rgb(0,0,0)" stroke="none" d="M 4195,9407 C 4596,9399 5888,9369 6552,9051 7216,8732 8229,7534 8180,7498 8130,7461 6926,8564 6254,8830 5582,9097 4491,9000 4148,9096 3805,9192 3794,9414 4195,9407 L 4195,9407 Z"/>
        <path fill="rgb(0,0,0)" stroke="none" d="M 3672,3358 C 4200,3509 5900,4001 6673,4658 7445,5315 8385,7269 8307,7300 8228,7332 7004,5439 6204,4848 5404,4258 3928,4005 3506,3757 3084,3509 3144,3208 3672,3358 L 3672,3358 Z"/>
        <path fill="rgb(0,0,0)" stroke="none" d="M 3791,3993 C 4275,4087 5838,4396 6582,4925 7325,5454 8319,7131 8251,7166 8183,7200 6939,5599 6176,5132 5413,4665 4070,4553 3672,4363 3275,4174 3306,3900 3791,3993 L 3791,3993 Z"/>
        <path fill="rgb(0,0,0)" stroke="none" d="M 3952,4606 C 4395,4653 5821,4811 6529,5229 7237,5646 8258,7075 8200,7111 8142,7147 6902,5805 6181,5445 5460,5084 4246,5087 3875,4948 3504,4808 3510,4560 3952,4606 L 3952,4606 Z"/>
        <path fill="rgb(0,0,0)" stroke="none" d="M 4202,5166 C 4602,5173 5895,5204 6559,5522 7223,5840 8236,7038 8186,7075 8137,7112 6933,6009 6261,5742 5589,5476 4498,5573 4155,5477 3812,5381 3801,5159 4202,5166 L 4202,5166 Z"/>
        <path fill="rgb(0,0,0)" stroke="none" d="M 8089,9108 L 8230,8401 12157,8401 12015,9108 8089,9108 8089,9108 Z"/>
       </g>
      </g>
      <g class="Group">
       <g class="com.sun.star.drawing.CustomShape">
        <g id="id4">
         <rect class="BoundingBox" stroke="none" fill="none" x="6054" y="6693" width="3007" height="3007"/>
         <path fill="rgb(0,0,0)" stroke="none" d="M 7822,8461 L 6584,9698 6054,9168 8529,6693 9059,7223 7822,8461 Z"/>
        </g>
       </g>
       <g class="com.sun.star.drawing.CustomShape">
        <g id="id5">
         <rect class="BoundingBox" stroke="none" fill="none" x="6055" y="4749" width="3007" height="3007"/>
         <path fill="rgb(0,0,0)" stroke="none" d="M 7293,6517 L 6056,5279 6586,4749 9061,7224 8531,7754 7293,6517 Z"/>
        </g>
       </g>
      </g>
     </g>
    </g>
   </g>
  </g>
 </g>
</svg>